# xmcd
#
# Track frame offsets:
#	150
#	17527
#	34905
#
# Disc length: 694 seconds
#
# Revision: 1
# Processed by: cddbd v1.5.2PL0 Copyright (c) Steve Scherf et al.
# Submitted via: EZCDAudioConverter 3.0.3.2
#
DISCID=1902b403
DTITLE=Toby Keith - Rock You Baby
DYEAR=1900
DGENRE=Country
TTITLE0=Rock You Baby (Single Version)
TTITLE1=Rock You Baby (Single version)
TTITLE2=Rock You Baby (Single version)
EXTD=
EXTT0=
EXTT1=
EXTT2=
PLAYORDER=
